<?xml version="1.0" encoding="UTF-8"?>
<svg xmlns="http://www.w3.org/2000/svg" xmlns:xlink="http://www.w3.org/1999/xlink" width="384pt" height="383.999986pt" viewBox="0 0 384 383.999986" version="1.2">
<defs>
<clipPath id="clip1">
  <path d="M 33.746094 33.746094 L 350.246094 33.746094 L 350.246094 350.246094 L 33.746094 350.246094 Z M 33.746094 33.746094 "/>
</clipPath>
</defs>
<g id="surface1">
<g clip-path="url(#clip1)" clip-rule="nonzero">
<path style=" stroke:none;fill-rule:nonzero;fill:rgb(35.688782%,75.289917%,74.508667%);fill-opacity:1;" d="M 33.746094 191.996094 C 33.746094 104.613281 104.613281 33.746094 191.996094 33.746094 C 279.382812 33.746094 350.246094 104.613281 350.246094 191.996094 C 350.246094 279.382812 279.382812 350.246094 191.996094 350.246094 C 104.613281 350.246094 33.746094 279.382812 33.746094 191.996094 Z M 33.746094 191.996094 "/>
</g>
<path style=" stroke:none;fill-rule:nonzero;fill:rgb(100%,100%,100%);fill-opacity:1;" d="M 278.425781 165.527344 L 218.148438 165.527344 L 218.148438 105.632812 C 218.148438 103.082031 216.109375 101.039062 213.554688 101.039062 L 170.117188 101.039062 C 167.566406 101.039062 165.527344 103.082031 165.527344 105.632812 L 165.527344 165.527344 L 105.632812 165.527344 C 103.082031 165.527344 101.039062 167.566406 101.039062 170.117188 L 101.039062 214.257812 C 101.039062 216.808594 103.082031 218.851562 105.632812 218.851562 L 165.527344 218.851562 L 165.527344 278.425781 C 165.527344 280.976562 167.566406 283.019531 170.117188 283.019531 L 213.554688 283.019531 C 216.109375 283.019531 218.148438 280.976562 218.148438 278.425781 L 218.148438 218.851562 L 278.425781 218.851562 C 280.976562 218.851562 283.019531 216.808594 283.019531 214.257812 L 283.019531 170.117188 C 283.019531 167.566406 280.914062 165.527344 278.425781 165.527344 "/>
</g>
</svg>
